<svg xmlns="http://www.w3.org/2000/svg" viewBox="0 0 1254 1254">
  <g transform="translate(0,1254) scale(0.1,-0.1)">
    <path fill="#0a0a0a" d="M4070 11579 c-313 -39 -599 -206 -793 -464 -80 -107 -168 -291 -204 -430 -26 -102 -28 -124 -28 -295 1 -171 3 -193 28 -285 95 -343 306 -603 622 -764 162 -83 305 -117 550 -130 141 -8 173 -13 259 -42 356 -118 648 -461 761 -896 54 -205 60 -289 60 -798 0 -530 -9 -621 -80 -878 -74 -264 -161 -444 -360 -743 -247 -372 -314 -555 -336 -923 -12 -203 -31 -326 -71 -451 -93 -291 -278 -511 -568 -676 -132 -74 -190 -116 -262 -190 -139 -143 -224 -295 -274 -492 -97 -383 -2 -776 263 -1085 179 -209 455 -364 728 -408 103 -17 328 -16 425 0 494 86 891 465 996 951 23 104 26 368 6 474 -34 181 -118 372 -257 582 -127 192 -174 315 -196 510 -21 190 14 382 106 570 197 406 582 644 1038 644 254 0 436 -57 648 -202 98 -66 244 -212 308 -307 37 -53 290 -396 506 -686 124 -165 276 -378 298 -417 83 -145 91 -334 23 -553 -55 -177 -61 -216 -60 -395 1 -144 4 -177 27 -263 114 -430 477 -753 918 -817 131 -19 340 -9 464 24 119 31 293 115 387 186 198 150 347 372 411 613 19 71 22 107 21 267 0 156 -4 197 -22 262 -71 259 -228 478 -447 624 -113 75 -219 117 -376 148 -143 29 -209 50 -309 100 -165 83 -279 183 -420 366 -49 63 -143 185 -209 270 -68 86 -137 187 -157 228 -65 132 -68 251 -10 378 53 114 106 162 306 269 515 278 860 656 1060 1162 111 283 154 531 153 898 0 317 -31 544 -109 795 -245 784 -857 1368 -1604 1528 -220 48 -316 52 -1125 52 -798 0 -865 3 -1033 46 -325 82 -606 311 -761 621 -17 34 -49 117 -71 183 -52 155 -86 231 -153 334 -197 301 -538 498 -887 511 -63 2 -149 0 -190 -6z m3570 -2599 c319 -39 593 -173 833 -409 294 -288 450 -662 450 -1081 0 -424 -161 -797 -471 -1092 -194 -184 -452 -314 -722 -365 -142 -26 -682 -26 -825 1 -298 55 -547 187 -766 407 -207 207 -342 456 -405 749 -29 134 -27 458 4 604 98 454 371 824 763 1029 154 81 354 144 509 160 83 9 553 6 630 -3z"/>
    <path fill="#EC7551" d="M7271 8214 c-1 -43 -53 -209 -84 -271 -30 -58 -32 -68 -15 -57 7 4 8 3 4 -5 -4 -6 -11 -9 -16 -6 -5 3 -16 -8 -25 -25 -26 -50 -150 -174 -223 -223 -88 -59 -166 -94 -277 -122 -59 -15 -79 -24 -58 -24 36 -1 186 -52 254 -86 51 -26 132 -87 198 -149 101 -95 205 -295 234 -451 l11 -59 12 54 c6 30 14 69 18 85 l7 30 -15 -30 c-10 -21 -15 -25 -15 -12 -1 11 -6 15 -12 11 -8 -5 -9 -2 -3 7 5 8 20 31 33 52 27 43 35 48 21 11 -22 -57 -7 -34 42 66 29 58 52 110 51 117 0 7 3 11 6 10 4 -1 32 26 62 60 30 34 83 85 119 114 36 29 65 55 65 60 0 4 4 11 9 16 5 5 6 3 2 -4 -10 -19 -2 -16 62 16 63 32 210 81 245 81 12 1 -18 12 -68 25 -110 29 -151 46 -238 98 -194 114 -338 322 -388 557 -9 47 -18 71 -18 54z"/>
  </g>
</svg>
